<?xml version="1.0" encoding="UTF-8"?>
<svg version="1.1" xmlns="http://www.w3.org/2000/svg" width="500" height="500">
<path d="M0 0 C1.99182251 -0.00217474 3.98360543 -0.02065559 5.9753418 -0.03930664 C36.54323959 -0.08459242 63.09419899 8.55966454 85.82495117 29.18530273 C86.69764648 29.96260742 87.5703418 30.73991211 88.46948242 31.54077148 C97.58533945 40.08216323 102.41188678 50.97917015 102.91870117 63.50170898 C102.95083077 66.06806071 102.90595756 68.6201003 102.82495117 71.18530273 C102.79981445 72.39379883 102.79981445 72.39379883 102.77416992 73.62670898 C102.29119477 82.2236667 98.6860505 89.60677289 94.82495117 97.18530273 C94.16495117 97.18530273 93.50495117 97.18530273 92.82495117 97.18530273 C92.82495117 97.84530273 92.82495117 98.50530273 92.82495117 99.18530273 C92.16495117 99.18530273 91.50495117 99.18530273 90.82495117 99.18530273 C90.82495117 99.84530273 90.82495117 100.50530273 90.82495117 101.18530273 C90.16495117 101.18530273 89.50495117 101.18530273 88.82495117 101.18530273 C88.82495117 101.84530273 88.82495117 102.50530273 88.82495117 103.18530273 C88.16495117 103.18530273 87.50495117 103.18530273 86.82495117 103.18530273 C86.82495117 103.84530273 86.82495117 104.50530273 86.82495117 105.18530273 C86.16495117 105.18530273 85.50495117 105.18530273 84.82495117 105.18530273 C84.82495117 105.84530273 84.82495117 106.50530273 84.82495117 107.18530273 C61.25747649 127.70237733 33.59167867 134.39725088 3.08813477 134.31567383 C0.69695749 134.310296 -1.69403333 134.31566068 -4.08520508 134.32202148 C-26.56486752 134.33661611 -45.80416266 129.8983073 -65.17504883 118.18530273 C-66.18180664 117.5781543 -67.18856445 116.97100586 -68.22583008 116.34545898 C-72.56049959 113.58825863 -72.56049959 113.58825863 -74.17504883 112.18530273 C-74.17504883 111.52530273 -74.17504883 110.86530273 -74.17504883 110.18530273 C-74.83504883 110.18530273 -75.49504883 110.18530273 -76.17504883 110.18530273 C-76.17504883 109.52530273 -76.17504883 108.86530273 -76.17504883 108.18530273 C-76.77317383 107.91717773 -77.37129883 107.64905273 -77.98754883 107.37280273 C-80.17352736 106.18612867 -81.58837477 105.08931161 -83.17504883 103.18530273 C-83.17504883 102.52530273 -83.17504883 101.86530273 -83.17504883 101.18530273 C-83.83504883 101.18530273 -84.49504883 101.18530273 -85.17504883 101.18530273 C-89.17504883 95.77353803 -89.17504883 95.77353803 -89.17504883 93.18530273 C-89.83504883 93.18530273 -90.49504883 93.18530273 -91.17504883 93.18530273 C-97.76858199 77.224573 -99.43487862 62.57471179 -93.42504883 46.12280273 C-91.42432376 41.31654967 -88.83291103 36.92677322 -85.17504883 33.18530273 C-84.51504883 33.18530273 -83.85504883 33.18530273 -83.17504883 33.18530273 C-83.17504883 32.52530273 -83.17504883 31.86530273 -83.17504883 31.18530273 C-82.51504883 31.18530273 -81.85504883 31.18530273 -81.17504883 31.18530273 C-81.17504883 30.52530273 -81.17504883 29.86530273 -81.17504883 29.18530273 C-80.51504883 29.18530273 -79.85504883 29.18530273 -79.17504883 29.18530273 C-78.84504883 28.19530273 -78.51504883 27.20530273 -78.17504883 26.18530273 C-76.39770508 24.57983398 -76.39770508 24.57983398 -74.23754883 22.99780273 C-73.52727539 22.46799805 -72.81700195 21.93819336 -72.08520508 21.39233398 C-70.17504883 20.18530273 -70.17504883 20.18530273 -68.17504883 20.18530273 C-68.17504883 19.52530273 -68.17504883 18.86530273 -68.17504883 18.18530273 C-56.21239879 11.62197305 -44.91691917 6.23812632 -31.61254883 2.99780273 C-30.92805664 2.83046631 -30.24356445 2.66312988 -29.53833008 2.49072266 C-19.75788729 0.23736256 -10.00943166 -0.00121636 0 0 Z M-41.17504883 10.18530273 C-41.17504883 10.51530273 -41.17504883 10.84530273 -41.17504883 11.18530273 C-37.4638322 10.7115304 -33.87203489 10.13545606 -30.23754883 9.24780273 C-10.43945479 4.83717207 9.86322271 5.137533 29.82495117 8.18530273 C31.65706533 8.40409852 33.49025468 8.6143367 35.32495117 8.81030273 C36.47995117 8.93405273 37.63495117 9.05780273 38.82495117 9.18530273 C38.82495117 8.85530273 38.82495117 8.52530273 38.82495117 8.18530273 C36.45019283 7.70491269 34.07515962 7.22595799 31.69995117 6.74780273 C31.03479492 6.6130957 30.36963867 6.47838867 29.68432617 6.33959961 C20.78493182 4.55099584 12.39562571 3.90813444 3.32495117 3.87280273 C2.63942169 3.86951965 1.95389221 3.86623657 1.24758911 3.862854 C-13.20452932 3.84053088 -27.49344744 5.26258716 -41.17504883 10.18530273 Z M38.82495117 9.18530273 C40.66378998 11.47259007 40.66378998 11.47259007 43.44995117 11.31030273 C44.23370117 11.26905273 45.01745117 11.22780273 45.82495117 11.18530273 C43.17756201 9.72467423 41.93046783 9.18530273 38.82495117 9.18530273 Z M-49.92504883 13.12280273 C-50.72426758 13.50307617 -51.52348633 13.88334961 -52.34692383 14.27514648 C-52.95020508 14.57549805 -53.55348633 14.87584961 -54.17504883 15.18530273 C-50.4672321 16.42124164 -49.4999463 15.75311593 -45.98754883 14.24780273 C-45.08649414 13.8675293 -44.18543945 13.48725586 -43.25708008 13.09545898 C-42.57000977 12.79510742 -41.88293945 12.49475586 -41.17504883 12.18530273 C-44.76241199 10.87706708 -46.54442759 11.48220713 -49.92504883 13.12280273 Z M51.82495117 13.18530273 C53.80495117 14.17530273 53.80495117 14.17530273 55.82495117 15.18530273 C55.49495117 14.52530273 55.16495117 13.86530273 54.82495117 13.18530273 C53.83495117 13.18530273 52.84495117 13.18530273 51.82495117 13.18530273 Z M-56.17504883 16.18530273 C-56.83504883 16.84530273 -57.49504883 17.50530273 -58.17504883 18.18530273 C-56.85504883 17.85530273 -55.53504883 17.52530273 -54.17504883 17.18530273 C-54.83504883 16.85530273 -55.49504883 16.52530273 -56.17504883 16.18530273 Z M-64.92504883 20.68530273 C-65.33754883 21.18030273 -65.75004883 21.67530273 -66.17504883 22.18530273 C-63.2132976 21.57252662 -61.794461 20.93157752 -59.17504883 19.18530273 C-63.05302545 18.75144182 -63.05302545 18.75144182 -64.92504883 20.68530273 Z M-71.80004883 24.18530273 C-72.91379883 24.84530273 -74.02754883 25.50530273 -75.17504883 26.18530273 C-75.17504883 26.84530273 -75.17504883 27.50530273 -75.17504883 28.18530273 C-75.83504883 28.18530273 -76.49504883 28.18530273 -77.17504883 28.18530273 C-77.17504883 28.84530273 -77.17504883 29.50530273 -77.17504883 30.18530273 C-78.16504883 30.68030273 -78.16504883 30.68030273 -79.17504883 31.18530273 C-78.18504883 31.18530273 -77.19504883 31.18530273 -76.17504883 31.18530273 C-76.17504883 30.52530273 -76.17504883 29.86530273 -76.17504883 29.18530273 C-72.84171549 27.51863607 -69.50838216 25.8519694 -66.17504883 24.18530273 C-66.17504883 23.52530273 -66.17504883 22.86530273 -66.17504883 22.18530273 C-68.63806305 22.18530273 -69.69568161 22.93827031 -71.80004883 24.18530273 Z M73.82495117 24.18530273 C74.15495117 24.84530273 74.48495117 25.50530273 74.82495117 26.18530273 C75.48495117 25.85530273 76.14495117 25.52530273 76.82495117 25.18530273 C75.83495117 24.85530273 74.84495117 24.52530273 73.82495117 24.18530273 Z M76.82495117 26.18530273 C78.14495117 27.83530273 79.46495117 29.48530273 80.82495117 31.18530273 C81.48495117 30.85530273 82.14495117 30.52530273 82.82495117 30.18530273 C81.53529941 28.80967419 80.19805825 27.4776388 78.82495117 26.18530273 C78.16495117 26.18530273 77.50495117 26.18530273 76.82495117 26.18530273 Z M-84.17504883 36.18530273 C-83.17504883 38.18530273 -83.17504883 38.18530273 -83.17504883 38.18530273 Z M88.82495117 37.18530273 C89.82495117 39.18530273 89.82495117 39.18530273 89.82495117 39.18530273 Z M-88.17504883 41.18530273 C-87.17504883 44.18530273 -87.17504883 44.18530273 -87.17504883 44.18530273 Z M-90.17504883 45.18530273 C-89.17504883 48.18530273 -89.17504883 48.18530273 -89.17504883 48.18530273 Z M-92.17504883 50.18530273 C-91.17504883 53.18530273 -91.17504883 53.18530273 -91.17504883 53.18530273 Z M-93.17504883 53.18530273 C-92.17504883 55.18530273 -92.17504883 55.18530273 -92.17504883 55.18530273 Z M-94.17504883 55.18530273 C-94.17504883 56.83530273 -94.17504883 58.48530273 -94.17504883 60.18530273 C-93.84504883 60.18530273 -93.51504883 60.18530273 -93.17504883 60.18530273 C-93.17504883 58.53530273 -93.17504883 56.88530273 -93.17504883 55.18530273 C-93.50504883 55.18530273 -93.83504883 55.18530273 -94.17504883 55.18530273 Z M-95.17504883 63.18530273 C-95.85463486 65.58249705 -95.85463486 65.58249705 -96.17504883 68.18530273 C-95.51504883 68.84530273 -94.85504883 69.50530273 -94.17504883 70.18530273 C-94.17504883 67.87530273 -94.17504883 65.56530273 -94.17504883 63.18530273 C-94.50504883 63.18530273 -94.83504883 63.18530273 -95.17504883 63.18530273 Z M-94.17504883 75.18530273 C-94.17504883 76.83530273 -94.17504883 78.48530273 -94.17504883 80.18530273 C-93.84504883 80.18530273 -93.51504883 80.18530273 -93.17504883 80.18530273 C-93.17504883 78.53530273 -93.17504883 76.88530273 -93.17504883 75.18530273 C-93.50504883 75.18530273 -93.83504883 75.18530273 -94.17504883 75.18530273 Z M-93.17504883 80.18530273 C-92.17504883 82.18530273 -92.17504883 82.18530273 -92.17504883 82.18530273 Z M-92.17504883 82.18530273 C-91.17504883 85.18530273 -91.17504883 85.18530273 -91.17504883 85.18530273 Z M-90.17504883 87.18530273 C-89.17504883 89.18530273 -89.17504883 89.18530273 -89.17504883 89.18530273 Z M-88.17504883 91.18530273 C-87.17504883 93.18530273 -87.17504883 93.18530273 -87.17504883 93.18530273 Z M-86.17504883 94.18530273 C-85.17504883 96.18530273 -85.17504883 96.18530273 -85.17504883 96.18530273 Z M-77.17504883 104.18530273 C-77.17504883 104.84530273 -77.17504883 105.50530273 -77.17504883 106.18530273 C-76.18504883 106.51530273 -75.19504883 106.84530273 -74.17504883 107.18530273 C-74.17504883 106.52530273 -74.17504883 105.86530273 -74.17504883 105.18530273 C-75.16504883 104.85530273 -76.15504883 104.52530273 -77.17504883 104.18530273 Z M-71.17504883 109.18530273 C-70.18504883 110.67030273 -70.18504883 110.67030273 -69.17504883 112.18530273 C-68.18504883 111.85530273 -67.19504883 111.52530273 -66.17504883 111.18530273 C-68.65004883 110.19530273 -68.65004883 110.19530273 -71.17504883 109.18530273 Z M73.82495117 109.18530273 C73.16495117 109.84530273 72.50495117 110.50530273 71.82495117 111.18530273 C73.14495117 110.85530273 74.46495117 110.52530273 75.82495117 110.18530273 C75.16495117 109.85530273 74.50495117 109.52530273 73.82495117 109.18530273 Z M-66.17504883 112.18530273 C-66.17504883 112.84530273 -66.17504883 113.50530273 -66.17504883 114.18530273 C-65.18504883 113.85530273 -64.19504883 113.52530273 -63.17504883 113.18530273 C-64.16504883 112.85530273 -65.15504883 112.52530273 -66.17504883 112.18530273 Z M-63.17504883 114.18530273 C-62.84504883 114.84530273 -62.51504883 115.50530273 -62.17504883 116.18530273 C-61.18504883 115.85530273 -60.19504883 115.52530273 -59.17504883 115.18530273 C-60.49504883 114.85530273 -61.81504883 114.52530273 -63.17504883 114.18530273 Z M-55.17504883 118.18530273 C-53.19504883 119.17530273 -53.19504883 119.17530273 -51.17504883 120.18530273 C-51.50504883 119.52530273 -51.83504883 118.86530273 -52.17504883 118.18530273 C-53.16504883 118.18530273 -54.15504883 118.18530273 -55.17504883 118.18530273 Z M49.82495117 121.18530273 C49.16495117 121.84530273 48.50495117 122.50530273 47.82495117 123.18530273 C49.47495117 122.85530273 51.12495117 122.52530273 52.82495117 122.18530273 C51.83495117 121.85530273 50.84495117 121.52530273 49.82495117 121.18530273 Z M-42.17504883 123.18530273 C-40.69004883 124.17530273 -40.69004883 124.17530273 -39.17504883 125.18530273 C-38.18504883 124.85530273 -37.19504883 124.52530273 -36.17504883 124.18530273 C-39.14504883 123.69030273 -39.14504883 123.69030273 -42.17504883 123.18530273 Z M42.82495117 123.18530273 C42.16495117 123.84530273 41.50495117 124.50530273 40.82495117 125.18530273 C42.80495117 124.85530273 44.78495117 124.52530273 46.82495117 124.18530273 C44.93315914 123.50382044 44.93315914 123.50382044 42.82495117 123.18530273 Z M-36.17504883 125.18530273 C-36.17504883 125.51530273 -36.17504883 125.84530273 -36.17504883 126.18530273 C-34.52504883 126.18530273 -32.87504883 126.18530273 -31.17504883 126.18530273 C-31.17504883 125.85530273 -31.17504883 125.52530273 -31.17504883 125.18530273 C-32.82504883 125.18530273 -34.47504883 125.18530273 -36.17504883 125.18530273 Z M-27.17504883 127.18530273 C-27.17504883 127.51530273 -27.17504883 127.84530273 -27.17504883 128.18530273 C-23.54504883 128.51530273 -19.91504883 128.84530273 -16.17504883 129.18530273 C-20.39134017 127.07715707 -22.57295658 127.00829919 -27.17504883 127.18530273 Z M15.82495117 129.18530273 C15.82495117 129.51530273 15.82495117 129.84530273 15.82495117 130.18530273 C21.45776716 130.42499703 26.37033948 129.57060094 31.82495117 128.18530273 C31.82495117 127.85530273 31.82495117 127.52530273 31.82495117 127.18530273 C26.19213518 126.94560844 21.27956286 127.80000453 15.82495117 129.18530273 Z M-16.17504883 129.18530273 C-16.17504883 129.51530273 -16.17504883 129.84530273 -16.17504883 130.18530273 C-13.53504883 130.18530273 -10.89504883 130.18530273 -8.17504883 130.18530273 C-8.17504883 129.85530273 -8.17504883 129.52530273 -8.17504883 129.18530273 C-10.81504883 129.18530273 -13.45504883 129.18530273 -16.17504883 129.18530273 Z M-7.17504883 130.18530273 C-7.17504883 130.51530273 -7.17504883 130.84530273 -7.17504883 131.18530273 C-0.24504883 131.18530273 6.68495117 131.18530273 13.82495117 131.18530273 C13.82495117 130.85530273 13.82495117 130.52530273 13.82495117 130.18530273 C6.89495117 130.18530273 -0.03504883 130.18530273 -7.17504883 130.18530273 Z " fill="#F9F9F9" transform="translate(247.175048828125,182.814697265625)"/>
<path d="M0 0 C1.99182251 -0.00217474 3.98360543 -0.02065559 5.9753418 -0.03930664 C36.54323959 -0.08459242 63.09419899 8.55966454 85.82495117 29.18530273 C86.69764648 29.96260742 87.5703418 30.73991211 88.46948242 31.54077148 C97.58533945 40.08216323 102.41188678 50.97917015 102.91870117 63.50170898 C102.95083077 66.06806071 102.90595756 68.6201003 102.82495117 71.18530273 C102.79981445 72.39379883 102.79981445 72.39379883 102.77416992 73.62670898 C102.29119477 82.2236667 98.6860505 89.60677289 94.82495117 97.18530273 C94.16495117 97.18530273 93.50495117 97.18530273 92.82495117 97.18530273 C92.82495117 97.84530273 92.82495117 98.50530273 92.82495117 99.18530273 C92.16495117 99.18530273 91.50495117 99.18530273 90.82495117 99.18530273 C90.82495117 99.84530273 90.82495117 100.50530273 90.82495117 101.18530273 C90.16495117 101.18530273 89.50495117 101.18530273 88.82495117 101.18530273 C88.82495117 101.84530273 88.82495117 102.50530273 88.82495117 103.18530273 C88.16495117 103.18530273 87.50495117 103.18530273 86.82495117 103.18530273 C86.82495117 103.84530273 86.82495117 104.50530273 86.82495117 105.18530273 C86.16495117 105.18530273 85.50495117 105.18530273 84.82495117 105.18530273 C84.82495117 105.84530273 84.82495117 106.50530273 84.82495117 107.18530273 C61.25747649 127.70237733 33.59167867 134.39725088 3.08813477 134.31567383 C0.69695749 134.310296 -1.69403333 134.31566068 -4.08520508 134.32202148 C-26.56486752 134.33661611 -45.80416266 129.8983073 -65.17504883 118.18530273 C-66.18180664 117.5781543 -67.18856445 116.97100586 -68.22583008 116.34545898 C-72.56049959 113.58825863 -72.56049959 113.58825863 -74.17504883 112.18530273 C-74.17504883 111.52530273 -74.17504883 110.86530273 -74.17504883 110.18530273 C-74.83504883 110.18530273 -75.49504883 110.18530273 -76.17504883 110.18530273 C-76.17504883 109.52530273 -76.17504883 108.86530273 -76.17504883 108.18530273 C-76.77317383 107.91717773 -77.37129883 107.64905273 -77.98754883 107.37280273 C-80.17352736 106.18612867 -81.58837477 105.08931161 -83.17504883 103.18530273 C-83.17504883 102.52530273 -83.17504883 101.86530273 -83.17504883 101.18530273 C-83.83504883 101.18530273 -84.49504883 101.18530273 -85.17504883 101.18530273 C-89.17504883 95.77353803 -89.17504883 95.77353803 -89.17504883 93.18530273 C-89.83504883 93.18530273 -90.49504883 93.18530273 -91.17504883 93.18530273 C-97.76858199 77.224573 -99.43487862 62.57471179 -93.42504883 46.12280273 C-91.42432376 41.31654967 -88.83291103 36.92677322 -85.17504883 33.18530273 C-84.51504883 33.18530273 -83.85504883 33.18530273 -83.17504883 33.18530273 C-83.17504883 32.52530273 -83.17504883 31.86530273 -83.17504883 31.18530273 C-82.51504883 31.18530273 -81.85504883 31.18530273 -81.17504883 31.18530273 C-81.17504883 30.52530273 -81.17504883 29.86530273 -81.17504883 29.18530273 C-80.51504883 29.18530273 -79.85504883 29.18530273 -79.17504883 29.18530273 C-78.84504883 28.19530273 -78.51504883 27.20530273 -78.17504883 26.18530273 C-76.39770508 24.57983398 -76.39770508 24.57983398 -74.23754883 22.99780273 C-73.52727539 22.46799805 -72.81700195 21.93819336 -72.08520508 21.39233398 C-70.17504883 20.18530273 -70.17504883 20.18530273 -68.17504883 20.18530273 C-68.17504883 19.52530273 -68.17504883 18.86530273 -68.17504883 18.18530273 C-56.21239879 11.62197305 -44.91691917 6.23812632 -31.61254883 2.99780273 C-30.92805664 2.83046631 -30.24356445 2.66312988 -29.53833008 2.49072266 C-19.75788729 0.23736256 -10.00943166 -0.00121636 0 0 Z M-58.17504883 17.18530273 C-58.50504883 17.84530273 -58.83504883 18.50530273 -59.17504883 19.18530273 C-59.90079102 19.32838867 -60.6265332 19.47147461 -61.37426758 19.61889648 C-64.68032695 20.2874859 -67.05837835 21.58911584 -69.98754883 23.24780273 C-70.96336914 23.7956543 -71.93918945 24.34350586 -72.94458008 24.90795898 C-73.68063477 25.32948242 -74.41668945 25.75100586 -75.17504883 26.18530273 C-75.17504883 26.84530273 -75.17504883 27.50530273 -75.17504883 28.18530273 C-75.83504883 28.18530273 -76.49504883 28.18530273 -77.17504883 28.18530273 C-77.17504883 28.84530273 -77.17504883 29.50530273 -77.17504883 30.18530273 C-77.83504883 30.51530273 -78.49504883 30.84530273 -79.17504883 31.18530273 C-78.51504883 31.51530273 -77.85504883 31.84530273 -77.17504883 32.18530273 C-80.14504883 35.48530273 -83.11504883 38.78530273 -86.17504883 42.18530273 C-86.83504883 41.85530273 -87.49504883 41.52530273 -88.17504883 41.18530273 C-90.03281648 44.32028565 -90.37645359 46.56001706 -90.17504883 50.18530273 C-90.83504883 50.18530273 -91.49504883 50.18530273 -92.17504883 50.18530273 C-92.15313477 51.15467773 -92.1312207 52.12405273 -92.10864258 53.12280273 C-92.10733964 58.3032883 -92.85970148 63.38782421 -93.55200195 68.51342773 C-94.2986465 74.5689725 -94.69300219 79.9083727 -91.17504883 85.18530273 C-90.65942383 85.80405273 -90.14379883 86.42280273 -89.61254883 87.06030273 C-88.17504883 89.18530273 -88.17504883 89.18530273 -87.73754883 91.68530273 C-86.88687622 95.46606988 -84.5501681 97.10605265 -81.57739258 99.43920898 C-80.06689169 100.63546855 -78.61698151 101.90722604 -77.17504883 103.18530273 C-77.17504883 104.17530273 -77.17504883 105.16530273 -77.17504883 106.18530273 C-75.51986676 107.87744653 -75.51986676 107.87744653 -73.36254883 109.37280273 C-72.65485352 109.90260742 -71.9471582 110.43241211 -71.21801758 110.97827148 C-69.14005221 112.43963966 -69.14005221 112.43963966 -66.17504883 112.18530273 C-66.17504883 112.84530273 -66.17504883 113.50530273 -66.17504883 114.18530273 C-65.5949707 114.35545898 -65.01489258 114.52561523 -64.41723633 114.70092773 C-59.38517569 116.26202906 -55.52815746 118.1482502 -51.17504883 121.18530273 C-49.84648054 121.53714815 -48.51227666 121.86795338 -47.17504883 122.18530273 C-45.44265146 122.86462076 -43.71373206 123.55284585 -41.98754883 124.24780273 C-37.65961654 125.84080156 -34.35074763 126.46141266 -29.78417969 126.18408203 C-26.71599822 126.1855175 -23.87095732 126.64182004 -20.84301758 127.13842773 C-13.15834417 128.28079141 -5.55916581 128.62067055 2.19995117 128.81030273 C3.53330556 128.84863992 4.86663937 128.88769962 6.19995117 128.92749023 C9.40815694 129.02048171 12.61637518 129.10632438 15.82495117 129.18530273 C15.82495117 129.51530273 15.82495117 129.84530273 15.82495117 130.18530273 C21.31467956 130.4189082 26.59438971 130.00365243 31.82495117 128.18530273 C32.15495117 127.52530273 32.48495117 126.86530273 32.82495117 126.18530273 C33.81495117 126.18530273 34.80495117 126.18530273 35.82495117 126.18530273 C35.82495117 125.52530273 35.82495117 124.86530273 35.82495117 124.18530273 C38.86881842 124.10303605 40.89670465 124.20922056 43.82495117 125.18530273 C44.81495117 124.52530273 45.80495117 123.86530273 46.82495117 123.18530273 C47.15495117 123.18530273 47.48495117 123.18530273 47.82495117 123.18530273 C51.71872662 122.57085945 54.99224167 121.37938801 58.57495117 119.74780273 C59.53916992 119.3159668 60.50338867 118.88413086 61.49682617 118.43920898 C63.95596946 117.40277581 63.95596946 117.40277581 64.82495117 115.18530273 C66.48567967 114.50397822 68.15271817 113.83788147 69.82495117 113.18530273 C70.48495117 112.52530273 71.14495117 111.86530273 71.82495117 111.18530273 C72.48495117 111.06155273 73.14495117 110.93780273 73.82495117 110.81030273 C74.81495117 110.50092773 74.81495117 110.50092773 75.82495117 110.18530273 C76.23680664 109.30165039 76.23680664 109.30165039 76.65698242 108.40014648 C78.14804797 105.57260746 80.04428495 104.14496036 82.51245117 102.12280273 C91.25395048 94.4692469 97.05927053 84.89837103 97.98022461 73.21557617 C98.55947536 62.76512664 97.89030372 54.58805297 92.82495117 45.18530273 C92.26807617 44.03030273 91.71120117 42.87530273 91.13745117 41.68530273 C90.70432617 40.86030273 90.27120117 40.03530273 89.82495117 39.18530273 C89.52202148 38.54463867 89.2190918 37.90397461 88.90698242 37.24389648 C85.54248742 30.84285364 80.26742213 26.34133102 73.82495117 23.18530273 C72.50065035 22.81772114 71.16697131 22.48173289 69.82495117 22.18530273 C66.82495117 21.18530273 66.82495117 21.18530273 65.13745117 19.37280273 C62.1275728 16.52562049 58.79111753 14.44796898 54.82495117 13.18530273 C52.63075448 13.50865536 52.63075448 13.50865536 50.82495117 14.18530273 C50.82495117 13.52530273 50.82495117 12.86530273 50.82495117 12.18530273 C41.92101709 8.91886882 33.13803171 6.84307331 23.82495117 5.18530273 C22.8998877 5.01256836 21.97482422 4.83983398 21.02172852 4.66186523 C-4.49830754 0.85744257 -35.62603937 4.10687725 -58.17504883 17.18530273 Z M-84.17504883 36.18530273 C-83.17504883 38.18530273 -83.17504883 38.18530273 -83.17504883 38.18530273 Z M-93.17504883 53.18530273 C-92.17504883 55.18530273 -92.17504883 55.18530273 -92.17504883 55.18530273 Z M-94.17504883 55.18530273 C-94.17504883 56.83530273 -94.17504883 58.48530273 -94.17504883 60.18530273 C-93.84504883 60.18530273 -93.51504883 60.18530273 -93.17504883 60.18530273 C-93.17504883 58.53530273 -93.17504883 56.88530273 -93.17504883 55.18530273 C-93.50504883 55.18530273 -93.83504883 55.18530273 -94.17504883 55.18530273 Z M-95.17504883 63.18530273 C-95.85463486 65.58249705 -95.85463486 65.58249705 -96.17504883 68.18530273 C-95.51504883 68.84530273 -94.85504883 69.50530273 -94.17504883 70.18530273 C-94.17504883 67.87530273 -94.17504883 65.56530273 -94.17504883 63.18530273 C-94.50504883 63.18530273 -94.83504883 63.18530273 -95.17504883 63.18530273 Z M-90.17504883 87.18530273 C-89.17504883 89.18530273 -89.17504883 89.18530273 -89.17504883 89.18530273 Z M-27.17504883 127.18530273 C-27.17504883 127.51530273 -27.17504883 127.84530273 -27.17504883 128.18530273 C-23.54504883 128.51530273 -19.91504883 128.84530273 -16.17504883 129.18530273 C-20.39134017 127.07715707 -22.57295658 127.00829919 -27.17504883 127.18530273 Z M-16.17504883 129.18530273 C-16.17504883 129.51530273 -16.17504883 129.84530273 -16.17504883 130.18530273 C-13.53504883 130.18530273 -10.89504883 130.18530273 -8.17504883 130.18530273 C-8.17504883 129.85530273 -8.17504883 129.52530273 -8.17504883 129.18530273 C-10.81504883 129.18530273 -13.45504883 129.18530273 -16.17504883 129.18530273 Z M-7.17504883 130.18530273 C-7.17504883 130.51530273 -7.17504883 130.84530273 -7.17504883 131.18530273 C-0.24504883 131.18530273 6.68495117 131.18530273 13.82495117 131.18530273 C13.82495117 130.85530273 13.82495117 130.52530273 13.82495117 130.18530273 C6.89495117 130.18530273 -0.03504883 130.18530273 -7.17504883 130.18530273 Z " fill="#0E0E0E" transform="translate(247.175048828125,182.814697265625)"/>
<path d="M0 0 C2.1385485 2.1385485 2.42655063 3.13275314 3 6 C4.32 6.33 5.64 6.66 7 7 C6.67 8.32 6.34 9.64 6 11 C5.34 11 4.68 11 4 11 C4.33 12.65 4.66 14.3 5 16 C3.02 16.99 3.02 16.99 1 18 C1.33 22.29 1.66 26.58 2 31 C2.99 30.67 3.98 30.34 5 30 C5.33 30.33 5.66 30.66 6 31 C7.32 28.36 8.64 25.72 10 23 C12.21959096 27.43918192 12.21959096 27.43918192 11 31.4375 C9.99060927 35.03655248 9.99060927 35.03655248 11.0625 38.5625 C12.3821404 41.99356504 11.08274408 43.67478779 9.671875 46.9296875 C8.60420176 50.21961086 9.23725101 52.67164075 10 56 C9.67 55.01 9.34 54.02 9 53 C8.34 53 7.68 53 7 53 C7 53.99 7 54.98 7 56 C5.515 56.495 5.515 56.495 4 57 C3.26676204 59.01508358 3.26676204 59.01508358 3 61 C4.32 61.33 5.64 61.66 7 62 C3.19788277 63.78923164 0.20417542 64.4671306 -4 64 C-4.66 63.01 -5.32 62.02 -6 61 C-5.01 61 -4.02 61 -3 61 C-3 59.02 -3 57.04 -3 55 C-3.33 55.66 -3.66 56.32 -4 57 C-5.65 56.67 -7.3 56.34 -9 56 C-9 55.01 -9 54.02 -9 53 C-9.99 52.67 -10.98 52.34 -12 52 C-11.01 52 -10.02 52 -9 52 C-9.01160156 50.87980469 -9.02320313 49.75960937 -9.03515625 48.60546875 C-9.04453622 47.13281417 -9.0536362 45.66015778 -9.0625 44.1875 C-9.07087891 43.44951172 -9.07925781 42.71152344 -9.08789062 41.95117188 C-9.10259828 38.70077932 -9.03531702 36.10595105 -8 33 C-8.99 32.67 -9.98 32.34 -11 32 C-11 31.01 -11 30.02 -11 29 C-11.66 29 -12.32 29 -13 29 C-13 29.66 -13 30.32 -13 31 C-16.465 32.485 -16.465 32.485 -20 34 C-19.979375 33.113125 -19.95875 32.22625 -19.9375 31.3125 C-19.84155854 28.07839837 -19.84155854 28.07839837 -20.8125 25.4375 C-21 23 -21 23 -18.875 20.25 C-16.03808865 18.02980851 -14.52775489 17.30237899 -11 17 C-11.66 15.02 -12.32 13.04 -13 11 C-13.66 11 -14.32 11 -15 11 C-15 9.68 -15 8.36 -15 7 C-14.34 7 -13.68 7 -13 7 C-12.6596875 6.1028125 -12.6596875 6.1028125 -12.3125 5.1875 C-9.42637159 0.37728599 -5.35979978 -0.59553331 0 0 Z " fill="#F8F7F5" transform="translate(252,203)"/>
<path d="M0 0 C1.99182251 -0.00217474 3.98360543 -0.02065559 5.9753418 -0.03930664 C36.54323959 -0.08459242 63.09419899 8.55966454 85.82495117 29.18530273 C86.69764648 29.96260742 87.5703418 30.73991211 88.46948242 31.54077148 C97.04594049 39.57675625 101.65459271 49.48171814 102.82495117 61.18530273 C102.89820259 64.52068385 102.88535206 67.84983159 102.82495117 71.18530273 C101.49161784 71.18530273 100.15828451 71.18530273 98.82495117 71.18530273 C98.69540039 69.87819336 98.69540039 69.87819336 98.56323242 68.54467773 C97.28083781 57.67373621 93.88762109 48.82848353 88.82495117 39.18530273 C88.39182617 38.16436523 88.39182617 38.16436523 87.94995117 37.12280273 C86.778308 34.9142792 86.778308 34.9142792 84.19995117 32.56030273 C83.41620117 31.77655273 82.63245117 30.99280273 81.82495117 30.18530273 C81.82495117 29.52530273 81.82495117 28.86530273 81.82495117 28.18530273 C81.10307617 27.89655273 80.38120117 27.60780273 79.63745117 27.31030273 C77.82351083 26.5847266 76.01090263 25.8558069 74.19995117 25.12280273 C72.42845837 24.42352926 70.63173094 23.78756266 68.82495117 23.18530273 C66.30247636 22.03872327 64.8087939 21.16914546 62.82495117 19.18530273 C59.99456887 16.84291738 57.35016396 15.26998359 53.82495117 14.18530273 C52.83495117 14.51530273 51.84495117 14.84530273 50.82495117 15.18530273 C49.83495117 14.19530273 49.83495117 14.19530273 48.82495117 13.18530273 C45.50752397 10.9736846 42.79706222 10.20906617 38.94995117 9.18530273 C37.7356543 8.85530273 36.52135742 8.52530273 35.27026367 8.18530273 C24.52227746 5.62583646 13.91598798 4.79576235 2.88745117 4.81030273 C2.21641357 4.81051422 1.54537598 4.81072571 0.85400391 4.8109436 C-18.84853423 4.87246301 -38.52937105 8.01699124 -56.17504883 17.18530273 C-56.17504883 17.84530273 -56.17504883 18.50530273 -56.17504883 19.18530273 C-57.75286133 19.33999023 -57.75286133 19.33999023 -59.36254883 19.49780273 C-63.09182922 20.17029592 -65.04285804 21.18418084 -68.17504883 23.18530273 C-69.16504883 23.18530273 -70.15504883 23.18530273 -71.17504883 23.18530273 C-70.68004883 21.70030273 -70.68004883 21.70030273 -70.17504883 20.18530273 C-69.51504883 20.18530273 -68.85504883 20.18530273 -68.17504883 20.18530273 C-68.17504883 19.52530273 -68.17504883 18.86530273 -68.17504883 18.18530273 C-56.21239879 11.62197305 -44.91691917 6.23812632 -31.61254883 2.99780273 C-30.92805664 2.83046631 -30.24356445 2.66312988 -29.53833008 2.49072266 C-19.75788729 0.23736256 -10.00943166 -0.00121636 0 0 Z " fill="#0C0C0C" transform="translate(247.175048828125,182.814697265625)"/>
<path d="M0 0 C2.21959096 4.43918192 2.21959096 4.43918192 1 8.4375 C-0.00939073 12.03655248 -0.00939073 12.03655248 1.0625 15.5625 C2.3821404 18.99356504 1.08274408 20.67478779 -0.328125 23.9296875 C-1.39579824 27.21961086 -0.76274899 29.67164075 0 33 C-0.33 32.01 -0.66 31.02 -1 30 C-1.66 30 -2.32 30 -3 30 C-3 30.99 -3 31.98 -3 33 C-4.485 33.495 -4.485 33.495 -6 34 C-6.73323796 36.01508358 -6.73323796 36.01508358 -7 38 C-5.68 38.33 -4.36 38.66 -3 39 C-6.80211723 40.78923164 -9.79582458 41.4671306 -14 41 C-14.66 40.01 -15.32 39.02 -16 38 C-15.01 38 -14.02 38 -13 38 C-13 36.02 -13 34.04 -13 32 C-13.33 32.66 -13.66 33.32 -14 34 C-15.65 33.67 -17.3 33.34 -19 33 C-19 32.01 -19 31.02 -19 30 C-19.99 29.67 -20.98 29.34 -22 29 C-21.01 29 -20.02 29 -19 29 C-19.02320313 27.87980469 -19.04640625 26.75960937 -19.0703125 25.60546875 C-19.08907237 24.13281916 -19.10727234 22.66016237 -19.125 21.1875 C-19.14175781 20.44951172 -19.15851563 19.71152344 -19.17578125 18.95117188 C-19.21074628 15.08753574 -19.19397555 13.29096332 -17 10 C-16.34 10.33 -15.68 10.66 -15 11 C-15 10.34 -15 9.68 -15 9 C-14.21625 8.9175 -13.4325 8.835 -12.625 8.75 C-9.85250896 8.27193661 -9.85250896 8.27193661 -8.6875 5.9375 C-8.460625 5.298125 -8.23375 4.65875 -8 4 C-8 5.32 -8 6.64 -8 8 C-7.01 7.67 -6.02 7.34 -5 7 C-4.67 7.33 -4.34 7.66 -4 8 C-2.68 5.36 -1.36 2.72 0 0 Z " fill="#84665D" transform="translate(262,226)"/>
<path d="M0 0 C3.53774244 0.27747 4.86885486 0.57464022 7.1875 3.25 C7.66035472 6.49243237 7.77993126 8.36135311 5.9375 11.125 C4.1875 12.25 4.1875 12.25 0.1875 12.25 C0.1875 11.26 0.1875 10.27 0.1875 9.25 C1.1775 8.92 2.1675 8.59 3.1875 8.25 C3.1875 6.93 3.1875 5.61 3.1875 4.25 C1.8675 3.92 0.5475 3.59 -0.8125 3.25 C-0.8125 7.54 -0.8125 11.83 -0.8125 16.25 C-2.1325 16.25 -3.4525 16.25 -4.8125 16.25 C-5.1425 13.28 -5.4725 10.31 -5.8125 7.25 C-6.4725 7.25 -7.1325 7.25 -7.8125 7.25 C-7.93625 8.549375 -8.06 9.84875 -8.1875 11.1875 C-8.3984375 13.40234375 -8.3984375 13.40234375 -8.8125 15.25 C-9.8025 15.745 -9.8025 15.745 -10.8125 16.25 C-11.1425 17.24 -11.4725 18.23 -11.8125 19.25 C-15.1875 19.4375 -15.1875 19.4375 -18.8125 19.25 C-19.4725 18.26 -20.1325 17.27 -20.8125 16.25 C-20.4825 15.92 -20.1525 15.59 -19.8125 15.25 C-20.8025 14.92 -21.7925 14.59 -22.8125 14.25 C-23.99611314 10.69916058 -23.78068526 9.14953241 -22.625 5.5 C-20.8125 2.25 -20.8125 2.25 -18.8125 1.3125 C-13.32788815 1.14110588 -9.63444293 2.7497333 -4.8125 5.25 C-4.668125 4.610625 -4.52375 3.97125 -4.375 3.3125 C-3.5231438 0.18902728 -3.34437836 0.29727808 0 0 Z " fill="#C37C83" transform="translate(305.8125,240.75)"/>
<path d="M0 0 C2.1385485 2.1385485 2.42655063 3.13275314 3 6 C4.32 6.33 5.64 6.66 7 7 C6.67 8.32 6.34 9.64 6 11 C5.34 11 4.68 11 4 11 C4.33 12.65 4.66 14.3 5 16 C4.29875 16.103125 3.5975 16.20625 2.875 16.3125 C-0.12567863 16.91509798 -0.12567863 16.91509798 -3.125 18.5625 C-6 20 -6 20 -9 20 C-10.32 17.03 -11.64 14.06 -13 11 C-13.66 11 -14.32 11 -15 11 C-15 9.68 -15 8.36 -15 7 C-14.34 7 -13.68 7 -13 7 C-12.773125 6.401875 -12.54625 5.80375 -12.3125 5.1875 C-9.42637159 0.37728599 -5.35979978 -0.59553331 0 0 Z " fill="#EDE8BE" transform="translate(252,203)"/>
<path d="M0 0 C5.75 -0.125 5.75 -0.125 8 1 C9.66611905 1.042721 11.33382885 1.04063832 13 1 C15.66666667 1 18.33333333 1 21 1 C21 1.99 21 2.98 21 4 C19.68 4.33 18.36 4.66 17 5 C16.67 8.96 16.34 12.92 16 17 C14.68 16.67 13.36 16.34 12 16 C11.34 16.33 10.68 16.66 10 17 C9.01 16.01 8.02 15.02 7 14 C7 14.66 7 15.32 7 16 C4.29120665 17.35439668 1.99066732 17.06501451 -1 17 C-1.66 15.68 -2.32 14.36 -3 13 C-0.69 13 1.62 13 4 13 C4 12.34 4 11.68 4 11 C2.03852126 9.61061923 0.03833424 8.2739589 -2 7 C-1.125 2.25 -1.125 2.25 0 0 Z " fill="#FEF4F2" transform="translate(178,239)"/>
<path d="M0 0 C6.42313248 0.84672359 12.79814992 1.23586986 19.26953125 1.37890625 C20.38076607 1.40434509 20.38076607 1.40434509 21.51445007 1.43029785 C25.28073823 1.51145898 29.04626183 1.57013238 32.81323242 1.60693359 C34.21924482 1.63212445 35.62525106 1.6576627 37.03125 1.68359375 C38.28873047 1.69704834 39.54621094 1.71050293 40.84179688 1.72436523 C41.82212891 1.85657471 42.80246094 1.98878418 43.8125 2.125 C44.4725 3.115 45.1325 4.105 45.8125 5.125 C36.2425 4.795 26.6725 4.465 16.8125 4.125 C16.8125 4.785 16.8125 5.445 16.8125 6.125 C18.7925 6.125 20.7725 6.125 22.8125 6.125 C22.8125 6.455 22.8125 6.785 22.8125 7.125 C0.42361111 8.93055556 0.42361111 8.93055556 -5.1875 6.125 C-5.1875 5.135 -5.1875 4.145 -5.1875 3.125 C-6.1775 3.125 -7.1675 3.125 -8.1875 3.125 C-8.1875 2.465 -8.1875 1.805 -8.1875 1.125 C-9.1775 0.795 -10.1675 0.465 -11.1875 0.125 C-7.36191141 -1.24334655 -3.91250158 -0.56196927 0 0 Z M-3.1875 1.125 C-3.1875 1.455 -3.1875 1.785 -3.1875 2.125 C0.4425 2.455 4.0725 2.785 7.8125 3.125 C3.59620866 1.01685433 1.41459225 0.94799645 -3.1875 1.125 Z M7.8125 3.125 C7.8125 3.455 7.8125 3.785 7.8125 4.125 C10.4525 4.125 13.0925 4.125 15.8125 4.125 C15.8125 3.795 15.8125 3.465 15.8125 3.125 C13.1725 3.125 10.5325 3.125 7.8125 3.125 Z " fill="#212121" transform="translate(223.1875,308.875)"/>
<path d="M0 0 C0.99 1.32 1.98 2.64 3 4 C3.33 2.68 3.66 1.36 4 0 C4.66 0 5.32 0 6 0 C5.75140609 3.77264688 5.47232984 7.54242947 5.1875 11.3125 C5.11724609 12.38435547 5.04699219 13.45621094 4.97460938 14.56054688 C4.89404297 15.58857422 4.81347656 16.61660156 4.73046875 17.67578125 C4.66239014 18.62364502 4.59431152 19.57150879 4.52416992 20.5480957 C3.93069855 23.3241707 3.2778276 24.3416462 1 26 C-1.125 25.8125 -1.125 25.8125 -3 25 C-3.33 24.34 -3.66 23.68 -4 23 C-3.01 23 -2.02 23 -1 23 C-1 21.02 -1 19.04 -1 17 C-1.33 17.66 -1.66 18.32 -2 19 C-2.66 19 -3.32 19 -4 19 C-4.89604368 12.95170514 -5.11269443 7.1105424 -5 1 C-4.34 1 -3.68 1 -3 1 C-3 2.32 -3 3.64 -3 5 C-2.34 5 -1.68 5 -1 5 C-0.67 3.35 -0.34 1.7 0 0 Z " fill="#EAD9D7" transform="translate(250,241)"/>
<path d="M0 0 C0.99 0.33 1.98 0.66 3 1 C1.625 2.5 1.625 2.5 0 4 C-0.66 4 -1.32 4 -2 4 C-2 4.66 -2 5.32 -2 6 C-2.66 6 -3.32 6 -4 6 C-3.73703125 6.54398438 -3.4740625 7.08796875 -3.203125 7.6484375 C-3 10 -3 10 -4.984375 12.7265625 C-5.89345667 13.70475564 -6.815993 14.67057755 -7.75 15.625 C-8.65234375 16.58664063 -9.5546875 17.54828125 -10.484375 18.5390625 C-13 21 -13 21 -16 23 C-16.40729228 25.32156597 -16.74438677 27.6568787 -17 30 C-17.33 30.33 -17.66 30.66 -18 31 C-18.400383 33.85528607 -18.7518227 36.69736487 -19.0625 39.5625 C-19.15337891 40.36880859 -19.24425781 41.17511719 -19.33789062 42.00585938 C-19.56247449 44.00347377 -19.78173236 46.0016856 -20 48 C-20.33 48 -20.66 48 -21 48 C-23.34450017 36.19999502 -23.04993831 26.99465938 -16.47265625 16.58203125 C-13.66380923 12.70183915 -13.66380923 12.70183915 -12 11 C-11.34 11 -10.68 11 -10 11 C-10 10.34 -10 9.68 -10 9 C-9.34 9 -8.68 9 -8 9 C-8 8.34 -8 7.68 -8 7 C-7.34 7 -6.68 7 -6 7 C-5.67 6.01 -5.34 5.02 -5 4 C-2.625 1.75 -2.625 1.75 0 0 Z M-11 14 C-10 16 -10 16 -10 16 Z M-20 31 C-19 33 -19 33 -19 33 Z M-21 33 C-21 34.65 -21 36.3 -21 38 C-20.67 38 -20.34 38 -20 38 C-20 36.35 -20 34.7 -20 33 C-20.33 33 -20.66 33 -21 33 Z " fill="#121212" transform="translate(174,205)"/>
<path d="M0 0 C3.75257718 -0.34907695 5.56588078 -0.27011863 8.8125 1.75 C10.96634616 3.96538462 11.67715014 4.98673462 12 8 C10.02 8.66 8.04 9.32 6 10 C6.33 11.65 6.66 13.3 7 15 C5.68 15.33 4.36 15.66 3 16 C2.34 15.01 1.68 14.02 1 13 C-0.96752828 11.93753473 -2.96587579 10.92862192 -5 10 C-5 7 -5 7 -3.625 5.5625 C-3.08875 5.046875 -2.5525 4.53125 -2 4 C-0.82425289 1.90010348 -0.82425289 1.90010348 0 0 Z " fill="#C7C4A6" transform="translate(266,211)"/>
<path d="M0 0 C1.87988281 0.28881836 1.87988281 0.28881836 4 1 C5.43946601 3.5307685 6.61941545 5.90101663 7.75 8.5625 C8.06582031 9.27341797 8.38164062 9.98433594 8.70703125 10.71679688 C9.48454043 12.47208274 10.24401855 14.23533543 11 16 C6.6027062 15.21775257 3.05440555 13.82845741 -1 12 C-1 12.66 -1 13.32 -1 14 C-1.66 14 -2.32 14 -3 14 C-3 14.66 -3 15.32 -3 16 C-4.65 16 -6.3 16 -8 16 C-5.33333333 10.66666667 -2.66666667 5.33333333 0 0 Z " fill="#FCE3DF" transform="translate(206,240)"/>
<path d="M0 0 C1.051875 0.13341797 1.051875 0.13341797 2.125 0.26953125 C2.82625 0.34558594 3.5275 0.42164063 4.25 0.5 C6.125 1.08203125 6.125 1.08203125 8.125 4.08203125 C8.53703933 7.29593802 8.40603013 8.64877647 6.625 11.39453125 C6.13 11.95140625 5.635 12.50828125 5.125 13.08203125 C6.445 13.74203125 7.765 14.40203125 9.125 15.08203125 C7.375 15.76953125 7.375 15.76953125 5.125 16.08203125 C2.875 14.89453125 2.875 14.89453125 1.125 13.08203125 C1.125 11.76203125 1.125 10.44203125 1.125 9.08203125 C2.115 8.75203125 3.105 8.42203125 4.125 8.08203125 C4.85823796 6.06694767 4.85823796 6.06694767 5.125 4.08203125 C2.155 3.58703125 2.155 3.58703125 -0.875 3.08203125 C-0.875 7.37203125 -0.875 11.66203125 -0.875 16.08203125 C-1.865 16.08203125 -2.855 16.08203125 -3.875 16.08203125 C-3.92884521 13.79061839 -3.96772087 11.49884937 -4 9.20703125 C-4.02320313 7.93085938 -4.04640625 6.6546875 -4.0703125 5.33984375 C-3.87009326 2.00018675 -3.68744831 0.16132586 0 0 Z " fill="#CE5D56" transform="translate(221.875,239.91796875)"/>
<path d="M0 0 C3.30619324 -0.4312426 5.35171911 -0.30708042 8.375 1.125 C10 3 10 3 10.4375 6 C10 9 10 9 8.75 10.875 C7 12 7 12 3 12 C3 11.01 3 10.02 3 9 C3.99 8.67 4.98 8.34 6 8 C6 6.68 6 5.36 6 4 C4.68 3.67 3.36 3.34 2 3 C2 7.29 2 11.58 2 16 C0.68 16 -0.64 16 -2 16 C-2.05402274 13.89611431 -2.09280256 11.79183286 -2.125 9.6875 C-2.14820313 8.51574219 -2.17140625 7.34398437 -2.1953125 6.13671875 C-2 3 -2 3 0 0 Z " fill="#D2665F" transform="translate(270,241)"/>
<path d="M0 0 C3.53774244 0.27747 4.86885486 0.57464022 7.1875 3.25 C7.66035472 6.49243237 7.77993126 8.36135311 5.9375 11.125 C4.1875 12.25 4.1875 12.25 0.1875 12.25 C0.1875 11.26 0.1875 10.27 0.1875 9.25 C1.1775 8.92 2.1675 8.59 3.1875 8.25 C3.1875 6.93 3.1875 5.61 3.1875 4.25 C1.8675 3.92 0.5475 3.59 -0.8125 3.25 C-0.8125 7.54 -0.8125 11.83 -0.8125 16.25 C-1.8025 16.25 -2.7925 16.25 -3.8125 16.25 C-3.83935095 13.77076199 -3.85926547 11.2918116 -3.875 8.8125 C-3.88756836 7.75192383 -3.88756836 7.75192383 -3.90039062 6.66992188 C-3.90903588 4.86306441 -3.86470011 3.05612397 -3.8125 1.25 C-2.8125 0.25 -2.8125 0.25 0 0 Z " fill="#D5645C" transform="translate(305.8125,240.75)"/>
<path d="M0 0 C0.99 0 1.98 0 3 0 C3 0.99 3 1.98 3 3 C4.32 3.33 5.64 3.66 7 4 C6.67 5.65 6.34 7.3 6 9 C4.02 9.33 2.04 9.66 0 10 C0 10.66 0 11.32 0 12 C-3.465 13.485 -3.465 13.485 -7 15 C-6.979375 14.113125 -6.95875 13.22625 -6.9375 12.3125 C-6.87187289 9.07269686 -6.87187289 9.07269686 -7.6875 6.3125 C-7.790625 5.549375 -7.89375 4.78625 -8 4 C-6.5625 2.1875 -6.5625 2.1875 -5 1 C-5.33 3.31 -5.66 5.62 -6 8 C-3.66924071 7.04134491 -3.66924071 7.04134491 -2 4 C-1.01 4 -0.02 4 1 4 C0.67 2.68 0.34 1.36 0 0 Z " fill="#C2BEA4" transform="translate(239,222)"/>
<path d="M0 0 C0.98484375 0.10183594 1.9696875 0.20367187 2.984375 0.30859375 C4.10585937 0.43427734 4.10585937 0.43427734 5.25 0.5625 C5.25 0.8925 5.25 1.2225 5.25 1.5625 C2.94 1.5625 0.63 1.5625 -1.75 1.5625 C-1.75 2.2225 -1.75 2.8825 -1.75 3.5625 C-1.17556152 3.61784912 -0.60112305 3.67319824 -0.00927734 3.73022461 C2.61902619 3.9846876 5.24701018 4.24231811 7.875 4.5 C9.23044922 4.63051758 9.23044922 4.63051758 10.61328125 4.76367188 C15.19356654 5.21501386 19.7198372 5.7272042 24.25 6.5625 C24.25 6.8925 24.25 7.2225 24.25 7.5625 C1.86111111 9.36805556 1.86111111 9.36805556 -3.75 6.5625 C-3.75 5.5725 -3.75 4.5825 -3.75 3.5625 C-4.74 3.5625 -5.73 3.5625 -6.75 3.5625 C-6.75 2.9025 -6.75 2.2425 -6.75 1.5625 C-7.74 1.2325 -8.73 0.9025 -9.75 0.5625 C-6.33860997 -0.53401823 -3.54344419 -0.37965473 0 0 Z " fill="#161616" transform="translate(221.75,308.4375)"/>
<path d="M0 0 C6.26905481 4.09489325 9.12178074 11.95667777 11 19 C12.09357992 24.68661558 12.10438622 30.23556114 12 36 C10.66666667 36 9.33333333 36 8 36 C7.34 30.39 6.68 24.78 6 19 C6.66 18.67 7.32 18.34 8 18 C7.23306849 16.26909924 6.46126869 14.54035515 5.6875 12.8125 C5.25824219 11.84957031 4.82898438 10.88664063 4.38671875 9.89453125 C3.04739439 6.97491603 3.04739439 6.97491603 1.33203125 4.26171875 C0 2 0 2 0 0 Z " fill="#010101" transform="translate(338,218)"/>
<path d="M0 0 C1.2065625 0.0309375 1.2065625 0.0309375 2.4375 0.0625 C2.7675 1.0525 3.0975 2.0425 3.4375 3.0625 C1.7875 3.0625 0.1375 3.0625 -1.5625 3.0625 C-1.5625 3.7225 -1.5625 4.3825 -1.5625 5.0625 C-0.593125 5.371875 0.37625 5.68125 1.375 6 C4.4375 7.0625 4.4375 7.0625 5.4375 8.0625 C5.125 11.5625 5.125 11.5625 4.4375 15.0625 C1.72870665 16.41689668 -0.57183268 16.12751451 -3.5625 16.0625 C-4.2225 14.7425 -4.8825 13.4225 -5.5625 12.0625 C-3.2525 12.0625 -0.9425 12.0625 1.4375 12.0625 C1.4375 11.4025 1.4375 10.7425 1.4375 10.0625 C-0.52397874 8.67311923 -2.52416576 7.3364589 -4.5625 6.0625 C-3.48963568 0.08511307 -3.48963568 0.08511307 0 0 Z " fill="#CD5E58" transform="translate(180.5625,239.9375)"/>
<path d="M0 0 C2.00720923 0.28674418 4.0085944 0.61866701 6 1 C6 1.66 6 2.32 6 3 C4.35 3 2.7 3 1 3 C1.8804896 5.24768247 1.8804896 5.24768247 4.5 6.3125 C7 8 7 8 7.8125 10.6875 C7.874375 11.450625 7.93625 12.21375 8 13 C5.44931155 15.35448165 4.28982642 15.98327924 0.75 16.1875 C-0.61125 16.0946875 -0.61125 16.0946875 -2 16 C-2.66 14.68 -3.32 13.36 -4 12 C-1.36 12 1.28 12 4 12 C4 11.34 4 10.68 4 10 C2.03852126 8.61061923 0.03833424 7.2739589 -2 6 C-1.125 1.125 -1.125 1.125 0 0 Z " fill="#CB574E" transform="translate(317,241)"/>
<path d="M0 0 C1.40821917 2.28317888 2.0740385 3.48265597 1.6875 6.18359375 C1.460625 6.92738281 1.23375 7.67117187 1 8.4375 C-0.04866123 12.43552096 0.26668413 14.20837154 2 18 C1.125 20.3125 1.125 20.3125 0 22 C-0.66 22 -1.32 22 -2 22 C-2.33 22.99 -2.66 23.98 -3 25 C-3.66 24.67 -4.32 24.34 -5 24 C-5 19.71 -5 15.42 -5 11 C-4.34 11 -3.68 11 -3 11 C-2.86722656 10.28972656 -2.73445313 9.57945312 -2.59765625 8.84765625 C-2.42105469 7.92855469 -2.24445313 7.00945312 -2.0625 6.0625 C-1.88847656 5.14597656 -1.71445312 4.22945312 -1.53515625 3.28515625 C-1 1 -1 1 0 0 Z " fill="#BDA792" transform="translate(262,226)"/>
<path d="M0 0 C0.680625 0.185625 1.36125 0.37125 2.0625 0.5625 C5.57232191 1.08523943 8.52188063 0.61378577 12 0 C12 0.99 12 1.98 12 3 C10.68 3.33 9.36 3.66 8 4 C7.67 7.96 7.34 11.92 7 16 C6.01 16 5.02 16 4 16 C4 11.71 4 7.42 4 3 C2.68 3 1.36 3 0 3 C0 2.01 0 1.02 0 0 Z " fill="#CF4E43" transform="translate(187,240)"/>
<path d="M0 0 C0.94552734 0.16242188 0.94552734 0.16242188 1.91015625 0.328125 C3.91015625 3.328125 3.91015625 3.328125 3.53515625 5.515625 C3.32890625 6.11375 3.12265625 6.711875 2.91015625 7.328125 C-2.50522837 8.55889423 -2.50522837 8.55889423 -5.46484375 7.390625 C-6.00109375 7.04 -6.53734375 6.689375 -7.08984375 6.328125 C-7.13256475 4.66200595 -7.13048207 2.99429615 -7.08984375 1.328125 C-5.19856033 -0.56315842 -2.51916649 0.0914398 0 0 Z " fill="#F9D5E9" transform="translate(293.08984375,244.671875)"/>
<path d="M0 0 C3.875 0.875 3.875 0.875 5 2 C6.32 1.34 7.64 0.68 9 0 C10.49821059 3.37097383 11 5.20442119 11 9 C9.68 9.33 8.36 9.66 7 10 C6.67 9.34 6.34 8.68 6 8 C4.34795544 7.29788106 2.68076231 6.63028587 1 6 C0 5 0 5 -0.0625 2.4375 C-0.041875 1.633125 -0.02125 0.82875 0 0 Z " fill="#FCF6CE" transform="translate(240,209)"/>
<path d="M0 0 C2.875 -0.125 2.875 -0.125 6 0 C6.66 0.66 7.32 1.32 8 2 C10.57061311 2.64767793 10.57061311 2.64767793 13 3 C13 2.67 13 2.34 13 2 C15.97 2.33 18.94 2.66 22 3 C17.7734037 5.11329815 16.74737805 5.15057183 12.26953125 4.66015625 C7.16139451 4.17485824 2.077187 3.83993843 -3.05078125 3.68359375 C-3.72785126 3.66237457 -4.40492126 3.6411554 -5.10250854 3.61929321 C-7.17244284 3.55632628 -9.24245843 3.49682392 -11.3125 3.4375 C-12.74675315 3.39415585 -14.18099804 3.35053749 -15.61523438 3.30664062 C-19.07673386 3.20127943 -22.53832884 3.09958188 -26 3 C-26 2.67 -26 2.34 -26 2 C-17.42 1.67 -8.84 1.34 0 1 C0 0.67 0 0.34 0 0 Z " fill="#020202" transform="translate(260,184)"/>
<path d="M0 0 C1.87988281 0.28881836 1.87988281 0.28881836 4 1 C5.43946601 3.5307685 6.61941545 5.90101663 7.75 8.5625 C8.06582031 9.27341797 8.38164062 9.98433594 8.70703125 10.71679688 C9.48454043 12.47208274 10.24401855 14.23533543 11 16 C9.68 16 8.36 16 7 16 C5.35 12.37 3.7 8.74 2 5 C1.34 5.66 0.68 6.32 0 7 C-0.99 6.67 -1.98 6.34 -3 6 C-2.01 4.02 -1.02 2.04 0 0 Z " fill="#CB5950" transform="translate(206,240)"/>
<path d="M0 0 C0.66 0 1.32 0 2 0 C2 1.32 2 2.64 2 4 C2.66 4 3.32 4 4 4 C4.33 3.01 4.66 2.02 5 1 C5.33 1 5.66 1 6 1 C6.20190089 7.35987804 5.6277833 12.85221129 4 19 C2.0625 18.625 2.0625 18.625 0 18 C-0.33 17.34 -0.66 16.68 -1 16 C-0.01 16 0.98 16 2 16 C2.33 12.7 2.66 9.4 3 6 C2.01 6 1.02 6 0 6 C0 4.02 0 2.04 0 0 Z " fill="#71524F" transform="translate(247,248)"/>
<path d="M0 0 C0.66 0.33 1.32 0.66 2 1 C1.41196203 4.02419525 0.77321882 7.01758453 0 10 C-0.66 10 -1.32 10 -2 10 C-2 10.66 -2 11.32 -2 12 C-2.53625 11.731875 -3.0725 11.46375 -3.625 11.1875 C-6.57282601 10.95477689 -7.04811495 11.5799856 -9.25 13.4375 C-10.61125 14.7059375 -10.61125 14.7059375 -12 16 C-12 13 -12 13 -10.390625 11.38671875 C-9.68421875 10.82597656 -8.9778125 10.26523437 -8.25 9.6875 C-4.69146328 6.72205273 -2.33154168 3.98305036 0 0 Z " fill="#171717" transform="translate(338,274)"/>
<path d="M0 0 C5.33951661 4.35071724 8.33261762 11.02244783 9.8125 17.625 C9.874375 18.40875 9.93625 19.1925 10 20 C9.67 19.34 9.34 18.68 9 18 C8.01 18 7.02 18 6 18 C5.74605469 17.41992188 5.49210937 16.83984375 5.23046875 16.2421875 C4.88628906 15.46101562 4.54210937 14.67984375 4.1875 13.875 C3.8265625 13.05515625 3.465625 12.2353125 3.09375 11.390625 C2.19833616 9.43350617 1.20577582 7.5210998 0.1875 5.625 C-1 3 -1 3 0 0 Z " fill="#111111" transform="translate(337,219)"/>
<path d="M0 0 C0.33 0 0.66 0 1 0 C1 3.96 1 7.92 1 12 C1.66 12 2.32 12 3 12 C2.98839844 12.67546875 2.97679687 13.3509375 2.96484375 14.046875 C2.95582031 14.93890625 2.94679687 15.8309375 2.9375 16.75 C2.92589844 17.63171875 2.91429687 18.5134375 2.90234375 19.421875 C2.89642179 21.96810281 2.89642179 21.96810281 3.62890625 24.203125 C3.75136719 24.79609375 3.87382812 25.3890625 4 26 C3.34 26.66 2.68 27.32 2 28 C-1.16064065 19.57162494 -1.46670742 10.92234774 -1 2 C-0.67 1.34 -0.34 0.68 0 0 Z " fill="#0C0C0C" transform="translate(151,241)"/>
<path d="M0 0 C0.66 0 1.32 0 2 0 C2 1.32 2 2.64 2 4 C2.66 4 3.32 4 4 4 C4.33 2.68 4.66 1.36 5 0 C5.33 3.3 5.66 6.6 6 10 C5.34 10 4.68 10 4 10 C4 8.68 4 7.36 4 6 C3.34 6 2.68 6 2 6 C2 7.98 2 9.96 2 12 C2.99 12 3.98 12 5 12 C4.34 13.98 3.68 15.96 3 18 C2.34 18 1.68 18 1 18 C0.10395632 11.95170514 -0.11269443 6.1105424 0 0 Z " fill="#DBBCBA" transform="translate(245,242)"/>
<path d="M0 0 C0.9075 0.61875 1.815 1.2375 2.75 1.875 C5.14948817 3.44389611 7.40961612 4.80443821 10 6 C10 6.66 10 7.32 10 8 C10.598125 8.144375 11.19625 8.28875 11.8125 8.4375 C13.56150404 8.8872439 15.28677023 9.42892341 17 10 C17.33 10.99 17.66 11.98 18 13 C11.51536373 12.72405803 6.92925623 10.21389931 2 6 C2 5.34 2 4.68 2 4 C1.34 4 0.68 4 0 4 C0 2.68 0 1.36 0 0 Z " fill="#080808" transform="translate(171,289)"/>
<path d="M0 0 C0.99 0.66 1.98 1.32 3 2 C2.69320312 2.64324219 2.38640625 3.28648437 2.0703125 3.94921875 C0.69189197 7.87822032 0.29693561 11.68652311 -0.125 15.8125 C-0.21136719 16.60076172 -0.29773438 17.38902344 -0.38671875 18.20117188 C-0.59751064 20.13343084 -0.79962896 22.06663263 -1 24 C-1.33 24 -1.66 24 -2 24 C-4.48063781 11.51480638 -4.48063781 11.51480638 -3 5 C-2.34 5 -1.68 5 -1 5 C-0.67 3.35 -0.34 1.7 0 0 Z M-1 7 C0 9 0 9 0 9 Z M-2 9 C-2 10.65 -2 12.3 -2 14 C-1.67 14 -1.34 14 -1 14 C-1 12.35 -1 10.7 -1 9 C-1.33 9 -1.66 9 -2 9 Z " fill="#242424" transform="translate(155,229)"/>
<path d="M0 0 C0.66 0 1.32 0 2 0 C2 3.3 2 6.6 2 10 C1.01 10.495 1.01 10.495 0 11 C-2.625 10.0625 -2.625 10.0625 -5 9 C-5 7.35 -5 5.7 -5 4 C-4.0409375 3.8453125 -4.0409375 3.8453125 -3.0625 3.6875 C-2.381875 3.460625 -1.70125 3.23375 -1 3 C-0.67 2.01 -0.34 1.02 0 0 Z " fill="#E0DFDF" transform="translate(239,245)"/>
<path d="M0 0 C1.2380014 3.57644848 0.74926071 6.33694766 0 10 C1.65 10.33 3.3 10.66 5 11 C4.67 9.68 4.34 8.36 4 7 C5.65 7.33 7.3 7.66 9 8 C8.01 8.495 8.01 8.495 7 9 C7.33 10.65 7.66 12.3 8 14 C6.68 14.33 5.36 14.66 4 15 C3.34 14.01 2.68 13.02 2 12 C0.03247172 10.93753473 -1.96587579 9.92862192 -4 9 C-4 6 -4 6 -2.5625 4.5 C-2.046875 4.005 -1.53125 3.51 -1 3 C-0.67 2.01 -0.34 1.02 0 0 Z " fill="#9F9C84" transform="translate(265,212)"/>
<path d="M0 0 C6.95041086 -0.26618595 13.23514355 0.3879491 20 2 C19.67 3.32 19.34 4.64 19 6 C12.125 5.125 12.125 5.125 11 4 C9.15108054 3.76636119 7.29511969 3.58696365 5.4375 3.4375 C4.42558594 3.35371094 3.41367187 3.26992187 2.37109375 3.18359375 C1.19740234 3.09271484 1.19740234 3.09271484 0 3 C0 2.01 0 1.02 0 0 Z " fill="#151515" transform="translate(266,184)"/>
<path d="M0 0 C6.875 2.875 6.875 2.875 8 4 C9.67542976 3.71395102 11.34385343 3.38218767 13 3 C11.94901234 5.86632997 11.33137046 6.83006643 8.5625 8.25 C6 9 6 9 3 9 C0 2.25 0 2.25 0 0 Z " fill="#C2C0AA" transform="translate(240,214)"/>
<path d="M0 0 C0.33 0 0.66 0 1 0 C1.33 2.64 1.66 5.28 2 8 C2.33 6.02 2.66 4.04 3 2 C3.33 2 3.66 2 4 2 C4 6.62 4 11.24 4 16 C2.35 16.33 0.7 16.66 -1 17 C-0.67 11.39 -0.34 5.78 0 0 Z " fill="#1F1F1F" transform="translate(345,245)"/>
<path d="M0 0 C0.99 0.33 1.98 0.66 3 1 C1.625 2.5 1.625 2.5 0 4 C-0.66 4 -1.32 4 -2 4 C-2 4.66 -2 5.32 -2 6 C-2.66 6 -3.32 6 -4 6 C-3.67 7.32 -3.34 8.64 -3 10 C-5.31 11.98 -7.62 13.96 -10 16 C-10 13.66666667 -10 11.33333333 -10 9 C-9.34 9 -8.68 9 -8 9 C-8 8.34 -8 7.68 -8 7 C-7.34 7 -6.68 7 -6 7 C-5.67 6.01 -5.34 5.02 -5 4 C-2.625 1.75 -2.625 1.75 0 0 Z " fill="#1A1A1A" transform="translate(174,205)"/>
<path d="M0 0 C3.96 0 7.92 0 12 0 C11.67 0.99 11.34 1.98 11 3 C1.1 3 -8.8 3 -19 3 C-19 2.67 -19 2.34 -19 2 C-12.73 1.67 -6.46 1.34 0 1 C0 0.67 0 0.34 0 0 Z " fill="#1B1B1B" transform="translate(253,183)"/>
<path d="M0 0 C0.33 1.32 0.66 2.64 1 4 C1.99 3.67 2.98 3.34 4 3 C3.67 3.99 3.34 4.98 3 6 C3 6.66 3 7.32 3 8 C3 8.99 3 9.98 3 11 C0.69 10.67 -1.62 10.34 -4 10 C-4.66 8.35 -5.32 6.7 -6 5 C-4.35 4.67 -2.7 4.34 -1 4 C-0.67 2.68 -0.34 1.36 0 0 Z " fill="#B4AF91" transform="translate(253,230)"/>
<path d="M0 0 C-0.4939759 5.55722892 -0.4939759 5.55722892 -3 7.75 C-3.99 8.36875 -3.99 8.36875 -5 9 C-5.33 9.66 -5.66 10.32 -6 11 C-6.66 10.67 -7.32 10.34 -8 10 C-7.67 7.36 -7.34 4.72 -7 2 C-2.25 0 -2.25 0 0 0 Z " fill="#E0E0C0" transform="translate(241,220)"/>
<path d="M0 0 C0.66 1.32 1.32 2.64 2 4 C2.99 4 3.98 4 5 4 C5 4.66 5 5.32 5 6 C6.98 5.67 8.96 5.34 11 5 C8.46800028 7.53199972 6.45440665 8.11946497 3 9 C0.125 8.625 0.125 8.625 -2 8 C-2.33 6.35 -2.66 4.7 -3 3 C-2.01 2.67 -1.02 2.34 0 2 C0 1.34 0 0.68 0 0 Z " fill="#D6A1B0" transform="translate(285,247)"/>
<path d="M0 0 C2.97 0.495 2.97 0.495 6 1 C5.67 2.65 5.34 4.3 5 6 C4.01 6 3.02 6 2 6 C1.67 8.31 1.34 10.62 1 13 C0.67 13 0.34 13 0 13 C0 8.71 0 4.42 0 0 Z " fill="#FED7D4" transform="translate(221,243)"/>
<path d="M0 0 C0.66 0.33 1.32 0.66 2 1 C1.6875 3.375 1.6875 3.375 1 6 C-2.4352048 8.29013653 -3.985331 8.17842973 -8 8 C-8.66 6.68 -9.32 5.36 -10 4 C-7.36 4 -4.72 4 -2 4 C-1.34 2.68 -0.68 1.36 0 0 Z " fill="#CF5C57" transform="translate(323,249)"/>
<path d="M0 0 C2.875 -0.125 2.875 -0.125 6 0 C8.1385485 2.1385485 8.42655063 3.13275314 9 6 C10.32 6.33 11.64 6.66 13 7 C12.67 8.32 12.34 9.64 12 11 C11.34 11 10.68 11 10 11 C10.33 12.65 10.66 14.3 11 16 C9 15 9 15 8.3125 13.0625 C8 11 8 11 9 9 C8.34 9 7.68 9 7 9 C6.34 6.69 5.68 4.38 5 2 C3.35 1.67 1.7 1.34 0 1 C0 0.67 0 0.34 0 0 Z " fill="#969385" transform="translate(246,203)"/>
<path d="M0 0 C2.49898715 1.24949358 3.33784615 2.7624852 5 5 C6.31442362 6.35197858 7.6434836 7.69026002 9 9 C5.21193549 8.39363716 2.17104296 7.28838544 -1.25 5.5625 C-2.12140625 5.13066406 -2.9928125 4.69882812 -3.890625 4.25390625 C-6 3 -6 3 -7 1 C-5.824375 1.309375 -5.824375 1.309375 -4.625 1.625 C-3.75875 1.74875 -2.8925 1.8725 -2 2 C-1.34 1.34 -0.68 0.68 0 0 Z " fill="#141414" transform="translate(190,299)"/>
<path d="M0 0 C2.475 0.495 2.475 0.495 5 1 C4.67 2.65 4.34 4.3 4 6 C3.01 6 2.02 6 1 6 C1 6.99 1 7.98 1 9 C4.54518884 7.60240095 4.54518884 7.60240095 8 6 C7.34 7.32 6.68 8.64 6 10 C4.02 10 2.04 10 0 10 C0 6.7 0 3.4 0 0 Z " fill="#FEEBE5" transform="translate(272,244)"/>
<path d="M0 0 C0.99 1.485 0.99 1.485 2 3 C1.01 3.33 0.02 3.66 -1 4 C-1.33 3.01 -1.66 2.02 -2 1 C-2.556875 1.144375 -3.11375 1.28875 -3.6875 1.4375 C-6 2 -6 2 -8.6875 2.4375 C-9.8321875 2.7159375 -9.8321875 2.7159375 -11 3 C-11.33 3.66 -11.66 4.32 -12 5 C-12.66 4.67 -13.32 4.34 -14 4 C-13.1875 1.5625 -13.1875 1.5625 -12 -1 C-7.36904713 -2.54365096 -4.45266675 -1.80001422 0 0 Z " fill="#AD5569" transform="translate(297,244)"/>
<path d="M0 0 C0.33 0 0.66 0 1 0 C1 2.31 1 4.62 1 7 C1.66 7 2.32 7 3 7 C3 6.01 3 5.02 3 4 C5.4375 4.6875 5.4375 4.6875 8 6 C8.8125 8.625 8.8125 8.625 9 11 C8.67 10.01 8.34 9.02 8 8 C4.88214887 8.64644661 4.88214887 8.64644661 4 11 C3.34 10.34 2.68 9.68 2 9 C1.67 9.99 1.34 10.98 1 12 C0.34 12 -0.32 12 -1 12 C-1.14285714 3.42857143 -1.14285714 3.42857143 0 0 Z " fill="#DACBCA" transform="translate(256,252)"/>
<path d="M0 0 C0.99 0.33 1.98 0.66 3 1 C2.67 6.94 2.34 12.88 2 19 C1.34 18.67 0.68 18.34 0 18 C0 17.01 0 16.02 0 15 C-0.99 14.67 -1.98 14.34 -3 14 C-2.01 14 -1.02 14 0 14 C0 9.38 0 4.76 0 0 Z " fill="#875A56" transform="translate(243,241)"/>
<path d="M0 0 C0.66 0 1.32 0 2 0 C4.55459078 3.83188618 5.50149366 7.39121983 4.61328125 12.01171875 C4.13274008 13.69190881 3.57280176 15.34898316 3 17 C2.67 17 2.34 17 2 17 C1.34 11.39 0.68 5.78 0 0 Z " fill="#070707" transform="translate(344,237)"/>
<path d="M0 0 C4.12027235 2.1450107 8.06887489 4.52771606 12 7 C11.01 7.66 10.02 8.32 9 9 C5 6 5 6 3.0625 4.4375 C0.76109416 2.83348987 -1.31869674 1.82501639 -4 1 C-4.99 1.33 -5.98 1.66 -7 2 C-7.66 1.34 -8.32 0.68 -9 0 C-5.84594842 -1.57702579 -3.24292633 -1.0255408 0 0 Z " fill="#181818" transform="translate(305,196)"/>
<path d="M0 0 C0.99 0 1.98 0 3 0 C3 0.99 3 1.98 3 3 C4.32 3.33 5.64 3.66 7 4 C6.67 5.65 6.34 7.3 6 9 C4.35 9 2.7 9 1 9 C1 7.68 1 6.36 1 5 C0.01 4.67 -0.98 4.34 -2 4 C-1.01 4 -0.02 4 1 4 C0.67 2.68 0.34 1.36 0 0 Z " fill="#B8B9AF" transform="translate(239,222)"/>
<path d="M0 0 C0.66 1.32 1.32 2.64 2 4 C3.97080157 4.74276031 3.97080157 4.74276031 6 5 C6.66 5.33 7.32 5.66 8 6 C6.68 7.65 5.36 9.3 4 11 C3.01 10.67 2.02 10.34 1 10 C0.67 10.66 0.34 11.32 0 12 C0 8.04 0 4.08 0 0 Z " fill="#F9E0DF" transform="translate(194,244)"/>
<path d="M0 0 C2.31 0.33 4.62 0.66 7 1 C7.33 1.99 7.66 2.98 8 4 C7.195625 4.268125 6.39125 4.53625 5.5625 4.8125 C4.716875 5.204375 3.87125 5.59625 3 6 C2.67 6.99 2.34 7.98 2 9 C1.01 9 0.02 9 -1 9 C-0.67 6.03 -0.34 3.06 0 0 Z " fill="#F7F3D2" transform="translate(266,212)"/>
<path d="M0 0 C0.99 0.66 1.98 1.32 3 2 C3.407974 5.19579631 3.56681719 7.14977421 1.75 9.875 C0 11 0 11 -4 11 C-4 10.01 -4 9.02 -4 8 C-3.01 7.67 -2.02 7.34 -1 7 C-0.67 4.69 -0.34 2.38 0 0 Z " fill="#CB5C55" transform="translate(310,242)"/>
<path d="M0 0 C0 0.99 0 1.98 0 3 C-0.94875 3.268125 -1.8975 3.53625 -2.875 3.8125 C-6.25267273 4.74986588 -6.25267273 4.74986588 -8 8 C-8.99 7.67 -9.98 7.34 -11 7 C-6.42400881 -0.16905286 -6.42400881 -0.16905286 0 0 Z " fill="#C66159" transform="translate(209,248)"/>
<path d="M0 0 C0.33 0 0.66 0 1 0 C1 4.29 1 8.58 1 13 C0.34 13 -0.32 13 -1 13 C-4 7.25 -4 7.25 -4 5 C-2.68 4.67 -1.36 4.34 0 4 C0 2.68 0 1.36 0 0 Z " fill="#FEF2EF" transform="translate(217,242)"/>
<path d="M0 0 C2.475 0.495 2.475 0.495 5 1 C4.67 2.65 4.34 4.3 4 6 C3.01 6 2.02 6 1 6 C1 6.99 1 7.98 1 9 C1.66 9.33 2.32 9.66 3 10 C2.01 10 1.02 10 0 10 C0 6.7 0 3.4 0 0 Z " fill="#FEEBE7" transform="translate(305,244)"/>
<path d="M0 0 C1.32 0.66 2.64 1.32 4 2 C0.71195019 4.91227269 -1.59885603 6.49701212 -6 7 C-5.67 6.01 -5.34 5.02 -5 4 C-4.34 4 -3.68 4 -3 4 C-3 3.34 -3 2.68 -3 2 C-2.01 1.34 -1.02 0.68 0 0 Z " fill="#0B0B0B" transform="translate(182,199)"/>
<path d="M0 0 C0.33 0.66 0.66 1.32 1 2 C0.67 2.99 0.34 3.98 0 5 C-3.375 5.1875 -3.375 5.1875 -7 5 C-7.66 4.01 -8.32 3.02 -9 2 C-6.03 1.34 -3.06 0.68 0 0 Z " fill="#E5BCB1" transform="translate(294,255)"/>
<path d="M0 0 C0.66 0.66 1.32 1.32 2 2 C0.68 4.64 -0.64 7.28 -2 10 C-4 9 -4 9 -4.6328125 7.15234375 C-4.79523438 6.42144531 -4.95765625 5.69054687 -5.125 4.9375 C-5.29257812 4.20402344 -5.46015625 3.47054687 -5.6328125 2.71484375 C-5.75398438 2.14894531 -5.87515625 1.58304688 -6 1 C-5.01 1 -4.02 1 -3 1 C-3 2.32 -3 3.64 -3 5 C-2.34 5 -1.68 5 -1 5 C-0.67 3.35 -0.34 1.7 0 0 Z " fill="#F7D2D5" transform="translate(284,241)"/>
<path d="M0 0 C1.99097846 2.98646769 2.94124926 5.59687262 4 9 C3.01 9.33 2.02 9.66 1 10 C1 9.34 1 8.68 1 8 C0.34 8 -0.32 8 -1 8 C-1.625 5.125 -1.625 5.125 -2 2 C-1.34 1.34 -0.68 0.68 0 0 Z M1 5 C2 7 2 7 2 7 Z " fill="#1C1C1C" transform="translate(156,265)"/>
<path d="M0 0 C3.34252724 -0.07427838 5.8035914 -0.06546953 9 1 C9 1.99 9 2.98 9 4 C9.99 4.33 10.98 4.66 12 5 C8.37 5.33 4.74 5.66 1 6 C1 5.34 1 4.68 1 4 C2.65 4 4.3 4 6 4 C5.67 3.34 5.34 2.68 5 2 C2.47266765 1.34444881 2.47266765 1.34444881 0 1 C0 0.67 0 0.34 0 0 Z " fill="#FADBD5" transform="translate(178,239)"/>
<path d="M0 0 C1.32 0 2.64 0 4 0 C5.50156874 3.00313748 5.09281204 5.79067522 5.0625 9.125 C5.05347656 10.40632812 5.04445312 11.68765625 5.03515625 13.0078125 C5.02355469 13.99523437 5.01195312 14.98265625 5 16 C4.67 16 4.34 16 4 16 C4 11.71 4 7.42 4 3 C2.68 3 1.36 3 0 3 C0 2.01 0 1.02 0 0 Z " fill="#D0807E" transform="translate(187,240)"/>
<path d="M0 0 C1.125 1.5625 1.125 1.5625 2 4 C1.125 7.75 1.125 7.75 0 11 C-0.99 11 -1.98 11 -3 11 C-2.69217504 9.35328588 -2.37860766 7.70764424 -2.0625 6.0625 C-1.88847656 5.14597656 -1.71445312 4.22945312 -1.53515625 3.28515625 C-1 1 -1 1 0 0 Z " fill="#C5AFB2" transform="translate(262,226)"/>
<path d="M0 0 C2.33524782 2.25740623 4.18705073 4.2805761 6 7 C5.67 7.99 5.34 8.98 5 10 C4.67 9.34 4.34 8.68 4 8 C3.01 8.495 3.01 8.495 2 9 C0.4375 6.1875 0.4375 6.1875 -1 3 C-0.67 2.01 -0.34 1.02 0 0 Z " fill="#191919" transform="translate(337,219)"/>
<path d="M0 0 C0.99 0.33 1.98 0.66 3 1 C2.34 1.66 1.68 2.32 1 3 C0.67 3.66 0.34 4.32 0 5 C-0.99 5 -1.98 5 -3 5 C-3 6.65 -3 8.3 -3 10 C-3.99 10 -4.98 10 -6 10 C-6 8.68 -6 7.36 -6 6 C-5.34 6 -4.68 6 -4 6 C-3.71125 5.38125 -3.4225 4.7625 -3.125 4.125 C-2 2 -2 2 0 0 Z " fill="#A8A595" transform="translate(243,204)"/>
<path d="M0 0 C0.33 0 0.66 0 1 0 C1.02694851 1.95825873 1.04637218 3.91662226 1.0625 5.875 C1.07410156 6.96554687 1.08570313 8.05609375 1.09765625 9.1796875 C1 12 1 12 0 14 C-0.66 14 -1.32 14 -2 14 C-1.43393721 9.30976546 -0.81462495 4.65499974 0 0 Z " fill="#DAD0CE" transform="translate(253,252)"/>
<path d="M0 0 C2.32472205 2.85306797 3.7508258 5.54074837 5 9 C3.68 9 2.36 9 1 9 C-0.61949011 6.42786866 -1.04408751 5.32330841 -0.625 2.25 C-0.41875 1.5075 -0.2125 0.765 0 0 Z " fill="#C8645B" transform="translate(212,247)"/>
<path d="M0 0 C0.33 0.99 0.66 1.98 1 3 C0.67 3.66 0.34 4.32 0 5 C-0.66 5 -1.32 5 -2 5 C-1.814375 5.70125 -1.62875 6.4025 -1.4375 7.125 C-0.94843024 10.33888698 -1.33768442 12.83560336 -2 16 C-2.33 16 -2.66 16 -3 16 C-3.16852247 14.39602723 -3.33474886 12.7918131 -3.5 11.1875 C-3.5928125 10.29417969 -3.685625 9.40085938 -3.78125 8.48046875 C-4 6 -4 6 -4 3 C-3.01 2.67 -2.02 2.34 -1 2 C-0.67 1.34 -0.34 0.68 0 0 Z " fill="#8D6A5B" transform="translate(259,232)"/>
<path d="M0 0 C1.76462683 3.08809695 2 4.23312136 2 8 C1.34 8 0.68 8 0 8 C-0.33 8.99 -0.66 9.98 -1 11 C-2.26264601 6.70700357 -1.62950412 4.12168689 0 0 Z " fill="#A78676" transform="translate(260,240)"/>
<path d="M0 0 C0 0.99 0 1.98 0 3 C-5.75 6 -5.75 6 -8 6 C-7.375 4.125 -7.375 4.125 -6 2 C-2.875 0.75 -2.875 0.75 0 0 Z " fill="#AEAB95" transform="translate(252,217)"/>
<path d="M0 0 C0.33 0.99 0.66 1.98 1 3 C-0.98 3.33 -2.96 3.66 -5 4 C-5 3.34 -5 2.68 -5 2 C-5.66 1.34 -6.32 0.68 -7 0 C-3.98968256 -0.93423645 -3.13349732 -1.04449911 0 0 Z " fill="#212121" transform="translate(290,307)"/>
<path d="M0 0 C0.33 1.32 0.66 2.64 1 4 C-2.3 4.66 -5.6 5.32 -9 6 C-8.34 5.360625 -7.68 4.72125 -7 4.0625 C-4.88397569 2.35917681 -4.88397569 2.35917681 -5 1 C-3.35 0.67 -1.7 0.34 0 0 Z " fill="#070707" transform="translate(313,299)"/>
<path d="M0 0 C0.66 0.33 1.32 0.66 2 1 C2 2.32 2 3.64 2 5 C1.01 5.495 1.01 5.495 0 6 C0 6.66 0 7.32 0 8 C-0.66 8 -1.32 8 -2 8 C-2.33 5.69 -2.66 3.38 -3 1 C-2.01 0.67 -1.02 0.34 0 0 Z " fill="#7E7E7E" transform="translate(273,276)"/>
<path d="M0 0 C0 0.99 0 1.98 0 3 C-2.31 3.33 -4.62 3.66 -7 4 C-7 3.01 -7 2.02 -7 1 C-4.53721199 -0.231394 -2.7204945 -0.07159196 0 0 Z " fill="#CA5F59" transform="translate(199,240)"/>
<path d="M0 0 C0.33 0.99 0.66 1.98 1 3 C1.99 3 2.98 3 4 3 C3.34 4.98 2.68 6.96 2 9 C1.34 9 0.68 9 0 9 C0 6.03 0 3.06 0 0 Z " fill="#BB8C89" transform="translate(246,251)"/>
<path d="M0 0 C0 1.98 0 3.96 0 6 C-1.98 6.99 -1.98 6.99 -4 8 C-3.74438677 5.6568787 -3.40729228 3.32156597 -3 1 C-1 0 -1 0 0 0 Z " fill="#FBEBED" transform="translate(301,247)"/>
<path d="M0 0 C1.65 0 3.3 0 5 0 C5 1.32 5 2.64 5 4 C3.68 4.33 2.36 4.66 1 5 C0.67 3.35 0.34 1.7 0 0 Z " fill="#FBE2F9" transform="translate(286,247)"/>
<path d="M0 0 C0.98120464 3.05263664 0.98120464 4.94736336 0 8 C-1.32 8.33 -2.64 8.66 -4 9 C-4 6 -4 6 -2.5625 4.5 C-2.046875 4.005 -1.53125 3.51 -1 3 C-0.67 2.01 -0.34 1.02 0 0 Z " fill="#ADAA9C" transform="translate(265,212)"/>
<path d="M0 0 C1.45742463 -0.08096803 2.91612807 -0.13917774 4.375 -0.1875 C5.18710937 -0.22230469 5.99921875 -0.25710938 6.8359375 -0.29296875 C7.55007813 -0.19628906 8.26421875 -0.09960938 9 0 C9.66 0.99 10.32 1.98 11 3 C3.43365385 3.37211538 3.43365385 3.37211538 1.23828125 1.48828125 C0.82964844 0.99714844 0.42101562 0.50601562 0 0 Z " fill="#070707" transform="translate(258,311)"/>
<path d="M0 0 C0.99 0.33 1.98 0.66 3 1 C2.42655063 3.86724686 2.1385485 4.8614515 0 7 C-0.66 5.02 -1.32 3.04 -2 1 C-1.34 0.67 -0.68 0.34 0 0 Z " fill="#777777" transform="translate(286,271)"/>
<path d="M0 0 C0.66 0.33 1.32 0.66 2 1 C1.67 2.32 1.34 3.64 1 5 C-1.97 4.505 -1.97 4.505 -5 4 C-3.35 2.68 -1.7 1.36 0 0 Z " fill="#D2D1D3" transform="translate(259,264)"/>
<path d="M0 0 C3.68754757 0.49831724 5.60490662 1.10067643 8 4 C6.02 4 4.04 4 2 4 C1.34 2.68 0.68 1.36 0 0 Z " fill="#C6655D" transform="translate(313,253)"/>
<path d="M0 0 C0.66 0.33 1.32 0.66 2 1 C2 1.66 2 2.32 2 3 C2.99 3.33 3.98 3.66 5 4 C4.67 4.66 4.34 5.32 4 6 C1.03 5.505 1.03 5.505 -2 5 C-1.125 1.125 -1.125 1.125 0 0 Z " fill="#040404" transform="translate(283,308)"/>
<path d="M0 0 C-0.33 1.65 -0.66 3.3 -1 5 C-4.39093457 3.86968848 -4.53808707 3.46191293 -7 1 C-3.375 -1.125 -3.375 -1.125 0 0 Z " fill="#1A1A1A" transform="translate(316,297)"/>
<path d="M0 0 C0.33 0.66 0.66 1.32 1 2 C1.639375 2.28875 2.27875 2.5775 2.9375 2.875 C5.42001234 4.22909764 5.96871397 5.42178493 7 8 C6.01 8 5.02 8 4 8 C3.34 6.35 2.68 4.7 2 3 C1.34 3 0.68 3 0 3 C0 2.01 0 1.02 0 0 Z " fill="#0B0B0B" transform="translate(156,273)"/>
<path d="M0 0 C0 0.66 0 1.32 0 2 C-0.66 2 -1.32 2 -2 2 C-2.33 2.66 -2.66 3.32 -3 4 C-4.64142963 5.0409066 -6.30712215 6.04504326 -8 7 C-6.13932792 2.84926997 -4.83061881 0 0 0 Z " fill="#7F7F7F" transform="translate(225,263)"/>
<path d="M0 0 C0.33 0 0.66 0 1 0 C0.67 2.64 0.34 5.28 0 8 C-0.99 8 -1.98 8 -3 8 C-3 6.68 -3 5.36 -3 4 C-2.34 4 -1.68 4 -1 4 C-0.67 2.68 -0.34 1.36 0 0 Z " fill="#E8DAD9" transform="translate(249,256)"/>
<path d="M0 0 C1.98 0.99 3.96 1.98 6 3 C5.67 3.99 5.34 4.98 5 6 C3.35 6 1.7 6 0 6 C0.66 5.01 1.32 4.02 2 3 C1.34 2.67 0.68 2.34 0 2 C0 1.34 0 0.68 0 0 Z " fill="#FDDED8" transform="translate(316,248)"/>
<path d="M0 0 C0.66 0.33 1.32 0.66 2 1 C2 2.65 2 4.3 2 6 C1.01 6.495 1.01 6.495 0 7 C-0.66 6.34 -1.32 5.68 -2 5 C-1.67 4.67 -1.34 4.34 -1 4 C-1.99 3.34 -2.98 2.68 -4 2 C-2.68 2 -1.36 2 0 2 C0 1.34 0 0.68 0 0 Z " fill="#BBBEBB" transform="translate(239,249)"/>
<path d="M0 0 C2.2477975 2.05233685 3.0022242 3.00667261 4 6 C3.01 6.495 3.01 6.495 2 7 C2 6.01 2 5.02 2 4 C0.02 4.33 -1.96 4.66 -4 5 C-4 4.34 -4 3.68 -4 3 C-3.01 3 -2.02 3 -1 3 C-0.67 2.01 -0.34 1.02 0 0 Z " fill="#FBCAC6" transform="translate(207,244)"/>
<path d="M0 0 C1.65 1.32 3.3 2.64 5 4 C0.25 5.125 0.25 5.125 -2 4 C-1.34 2.68 -0.68 1.36 0 0 Z " fill="#C5C6C5" transform="translate(245,264)"/>
<path d="M0 0 C0.66 0 1.32 0 2 0 C2 1.32 2 2.64 2 4 C2.99 4 3.98 4 5 4 C5 4.66 5 5.32 5 6 C3.35 6 1.7 6 0 6 C0 4.02 0 2.04 0 0 Z " fill="#674D4D" transform="translate(247,248)"/>
<path d="M0 0 C0.99 0 1.98 0 3 0 C3.33 1.65 3.66 3.3 4 5 C3.34 5 2.68 5 2 5 C1.67 6.32 1.34 7.64 1 9 C1 7.68 1 6.36 1 5 C0.01 4.67 -0.98 4.34 -2 4 C-1.01 4 -0.02 4 1 4 C0.67 2.68 0.34 1.36 0 0 Z " fill="#737262" transform="translate(239,222)"/>
<path d="M0 0 C0.66 0 1.32 0 2 0 C2 0.99 2 1.98 2 3 C2.66 3 3.32 3 4 3 C3.67 4.32 3.34 5.64 3 7 C2.67 6.34 2.34 5.68 2 5 C1.34 5.66 0.68 6.32 0 7 C0 4.69 0 2.38 0 0 Z " fill="#747474" transform="translate(251,275)"/>
<path d="M0 0 C0.99 0.33 1.98 0.66 3 1 C2.67 2.32 2.34 3.64 2 5 C1.01 5 0.02 5 -1 5 C-0.67 3.35 -0.34 1.7 0 0 Z " fill="#888888" transform="translate(279,274)"/>
<path d="M0 0 C0.66 0.33 1.32 0.66 2 1 C1.67 2.32 1.34 3.64 1 5 C-0.32 4.67 -1.64 4.34 -3 4 C-3 3.34 -3 2.68 -3 2 C-2.01 1.34 -1.02 0.68 0 0 Z " fill="#FBDFF8" transform="translate(295,247)"/>
<path d="M0 0 C0.66 0 1.32 0 2 0 C1.67 4.29 1.34 8.58 1 13 C0.67 13 0.34 13 0 13 C-0.19397476 11.02145742 -0.38001321 9.0421352 -0.5625 7.0625 C-0.66691406 5.96035156 -0.77132813 4.85820312 -0.87890625 3.72265625 C-0.91886719 2.82417969 -0.95882813 1.92570313 -1 1 C-0.67 0.67 -0.34 0.34 0 0 Z " fill="#FEF2F0" transform="translate(267,242)"/>
<path d="" fill="#000000" transform="translate(0,0)"/>
</svg>
